<svg width="184" height="160" viewBox="0 0 184 160" fill="none" xmlns="http://www.w3.org/2000/svg">
<g filter="url(#filter0_d)">
<path d="M20.544 142.376C18.56 141.672 16.928 140.872 15.648 139.976C14.432 139.08 13.408 137.608 12.576 135.56C11.552 132.68 11.04 129.288 11.04 125.384C11.04 121.608 11.264 118.408 11.712 115.784C12.16 113.096 12.928 110.376 14.016 107.624L14.88 105.608C15.904 102.984 16.64 101.256 17.088 100.424C18.176 97.928 20.096 94.696 22.848 90.728C25.28 87.016 27.2 84.328 28.608 82.664C30.016 80.936 31.36 79.56 32.64 78.536C33.984 77.512 36.416 75.784 39.936 73.352C41.408 72.264 43.104 71.72 45.024 71.72C46.624 71.72 48.096 72.136 49.44 72.968C50.848 73.736 51.904 74.856 52.608 76.328C53.312 77.544 53.664 79.176 53.664 81.224C53.664 84.104 53.024 87.112 51.744 90.248C50.464 93.384 48.832 95.848 46.848 97.64C46.208 98.216 45.6 98.504 45.024 98.504C44.32 98.504 43.392 97.992 42.24 96.968C41.664 95.88 41.344 95.24 41.28 95.048C41.216 94.856 41.344 94.728 41.664 94.664C42.24 93.96 43.072 92.616 44.16 90.632C45.312 88.584 46.08 86.984 46.464 85.832C46.592 85.448 46.72 84.808 46.848 83.912C47.36 81.672 47.616 80.168 47.616 79.4C47.616 78.632 47.392 78.024 46.944 77.576C46.752 77.384 46.496 77.288 46.176 77.288C45.664 77.288 44.768 77.608 43.488 78.248C41.952 78.888 40 80.328 37.632 82.568C35.264 84.808 33.12 87.24 31.2 89.864C28.256 93.704 25.984 96.872 24.384 99.368C22.848 101.864 21.664 104.392 20.832 106.952L19.776 109.448C19.84 109.704 19.744 110.344 19.488 111.368C19.232 112.392 18.944 113.224 18.624 113.864C17.728 117.576 17.28 121.256 17.28 124.904C17.28 127.656 17.504 130.088 17.952 132.2C18.464 134.312 19.168 135.752 20.064 136.52C20.576 136.968 21.344 137.192 22.368 137.192C23.648 137.192 25.216 136.872 27.072 136.232C28.992 135.592 31.328 134.664 34.08 133.448C35.552 132.872 36.928 132.2 38.208 131.432C39.552 130.664 40.544 129.96 41.184 129.32C42.848 128.104 44.192 127.496 45.216 127.496C45.92 127.24 46.4 127.112 46.656 127.112C46.784 127.112 46.848 127.208 46.848 127.4C46.912 127.528 46.944 127.72 46.944 127.976C46.944 128.872 46.464 129.864 45.504 130.952C44.544 131.976 43.264 132.968 41.664 133.928C40.384 135.208 38.848 136.2 37.056 136.904C35.008 138.376 32.608 139.688 29.856 140.84C27.168 141.992 24.704 142.568 22.464 142.568C21.952 142.568 21.312 142.504 20.544 142.376ZM55.911 141.896C55.335 141.64 54.663 141.128 53.895 140.36C52.487 139.464 51.431 138.44 50.727 137.288C50.023 136.136 49.639 134.568 49.575 132.584C49.575 132.072 49.991 131.368 50.823 130.472C51.719 129.512 52.679 129.032 53.703 129.032C54.279 129.032 54.855 129.224 55.431 129.608C54.855 131.464 54.567 132.712 54.567 133.352C54.567 134.184 54.855 134.856 55.431 135.368C56.071 135.816 57.159 136.2 58.695 136.52C59.591 136.712 60.423 136.808 61.191 136.808C62.215 136.808 63.623 136.648 65.415 136.328C67.207 136.2 68.583 136.072 69.543 135.944C70.503 135.752 71.207 135.464 71.655 135.08C73.511 134.312 75.175 133.416 76.647 132.392C78.119 131.304 79.111 130.216 79.623 129.128C80.263 128.296 80.647 127.624 80.775 127.112C80.903 126.6 80.967 125.992 80.967 125.288C80.967 124.584 80.967 124.072 80.967 123.752C80.903 121.704 80.743 120.296 80.487 119.528C80.231 118.696 79.399 116.808 77.991 113.864C77.991 113.48 77.383 112.616 76.167 111.272C74.951 109.864 74.151 108.936 73.767 108.488C72.935 106.76 72.231 105.416 71.655 104.456C71.143 103.496 70.503 102.76 69.735 102.248C69.543 101.992 69.287 101.448 68.967 100.616C68.647 99.784 68.423 99.336 68.295 99.272C68.231 99.208 68.135 99.048 68.007 98.792C67.879 98.472 67.719 98.088 67.527 97.64C67.015 96.488 66.759 95.272 66.759 93.992C66.759 92.2 67.143 90.344 67.911 88.424C68.743 86.44 69.927 84.584 71.463 82.856C72.167 81.64 73.447 80.168 75.303 78.44C77.223 76.648 78.375 75.752 78.759 75.752C78.887 75.688 79.143 75.592 79.527 75.464C79.975 75.272 80.455 74.984 80.967 74.6C81.543 74.472 82.343 74.216 83.367 73.832C84.391 73.384 85.255 73.16 85.959 73.16C86.919 72.84 87.687 72.616 88.263 72.488C88.903 72.296 89.543 72.2 90.183 72.2L92.967 72.392C96.167 73.224 98.151 74.888 98.919 77.384L99.591 81.512L95.559 84.488C94.791 84.744 93.831 84.872 92.679 84.872C91.911 84.872 91.239 84.84 90.663 84.776C90.087 84.712 89.703 84.648 89.511 84.584C89.191 84.584 89.031 84.424 89.031 84.104C89.031 83.912 89.095 83.752 89.223 83.624C89.415 83.496 89.607 83.432 89.799 83.432C89.991 83.24 90.311 82.92 90.759 82.472C91.207 81.96 91.655 81.48 92.103 81.032C92.551 80.328 92.775 79.752 92.775 79.304C92.775 78.984 92.647 78.792 92.391 78.728C92.199 78.6 91.815 78.536 91.239 78.536L88.743 78.728C86.439 78.856 84.263 79.464 82.215 80.552C80.167 81.576 78.471 83.08 77.127 85.064C75.591 86.408 74.439 87.816 73.671 89.288C72.903 90.76 72.519 92.072 72.519 93.224C72.839 94.76 73.383 96.232 74.151 97.64L79.623 105.224C81.095 107.08 81.831 108.136 81.831 108.392V108.872C81.959 108.872 82.471 109.736 83.367 111.464C84.263 113.192 84.711 114.216 84.711 114.536L85.575 116.552C85.895 116.872 86.215 118.216 86.535 120.584C86.855 122.952 87.015 124.776 87.015 126.056C86.951 127.144 86.535 128.36 85.767 129.704C85.063 131.048 84.167 132.296 83.079 133.448C81.735 134.856 79.783 136.424 77.223 138.152C74.663 139.88 72.455 140.968 70.599 141.416C69.511 141.8 68.071 142.12 66.279 142.376C64.551 142.632 62.823 142.76 61.095 142.76C58.215 142.76 56.487 142.472 55.911 141.896Z" fill="#EC9A01"/>
</g>
<g clip-path="url(#clip0)" filter="url(#filter1_d)">
<g filter="url(#filter2_d)">
<g filter="url(#filter3_d)">
<path d="M154.207 1.15039C151.6 1.48125 148.817 2.33848 146.517 3.51152C145.111 4.24844 143.119 5.55684 142.459 6.18848C141.683 6.92539 142.078 8.21875 143.06 8.21875C143.324 8.21875 143.792 7.96309 144.408 7.49687C149.813 3.30098 157.24 2.14297 163.685 4.47402C170.555 6.97051 175.521 12.8357 177.088 20.2951C177.513 22.3404 177.542 26.416 177.161 28.4162C176.356 32.5369 174.525 36.1463 171.742 39.1541C167.992 43.1846 163.319 45.3502 157.577 45.7412C153.343 46.042 149.827 46.9744 146.107 48.7941L144.378 49.6363L143.177 48.4031L141.976 47.1699L143.734 45.3502C144.701 44.3576 145.755 43.3801 146.077 43.1846C146.4 42.9891 149.139 42.0416 152.157 41.0791C158.031 39.1992 158.353 39.0488 158.353 38.1615C158.353 37.2441 157.21 36.5072 155.789 36.4922C154.691 36.4922 154.354 36.1914 154.354 35.1687C154.354 32.9881 153.021 31.6797 150.794 31.6797C150.428 31.6797 150.077 31.5895 150.003 31.4842C149.915 31.3939 149.813 30.8375 149.754 30.266C149.549 28.0854 148.451 27.0176 146.414 27.0176C145.418 27.0176 145.125 26.6717 145.125 25.5437C145.111 24.0398 144.217 22.6713 143.368 22.8818C142.577 23.0773 142.415 23.4533 140.716 29.0479C139.823 32.0256 138.885 34.8379 138.651 35.2891C138.372 35.8455 137.625 36.7479 136.483 37.9209L134.725 39.7256L133.509 38.4773L132.293 37.2441L133.07 35.65C134.886 31.8451 135.677 28.717 136.117 23.5285C136.512 18.7912 137.464 15.9338 139.808 12.3695C140.233 11.7229 140.584 11.0461 140.584 10.8656C140.584 10.0986 139.647 9.51211 138.988 9.85801C138.621 10.0686 137.054 12.4598 136.336 13.9186C134.915 16.8512 134.256 19.4529 133.919 23.4684C133.656 26.5213 133.538 27.3033 132.952 29.5441C132.469 31.4541 131.927 32.9279 131.063 34.6875L130.477 35.8906L129.686 35.8004C128.485 35.65 127.386 36.041 126.536 36.9133C125.848 37.6201 125.35 38.6879 125.35 39.4549C125.35 39.7406 125.277 39.8008 124.881 39.8008C124.251 39.8158 123.343 40.2369 122.684 40.8385C121.307 42.0717 121.058 44.4328 122.142 45.9668L122.596 46.5984L117.337 52.0426C112.035 57.5168 111.156 58.5695 110.16 60.6299C109.412 62.1639 104.696 74.932 104.696 75.4133C104.696 76.7517 105.897 78 107.171 78C107.581 78 119.139 73.5334 121.234 72.5709C121.746 72.3303 122.713 71.7588 123.372 71.3227C124.676 70.4203 127.869 67.3824 128.221 66.7057C128.617 65.8935 128.104 65.0664 127.21 65.0664C126.873 65.0664 126.449 65.3973 125.072 66.7959C124.119 67.7434 123.285 68.5254 123.211 68.5254C123.035 68.5254 119.344 64.7205 119.344 64.54C119.344 64.3445 129.481 53.9375 129.671 53.9375C129.744 53.9375 130.682 54.8248 131.751 55.9227L133.7 57.9078L131.795 59.893C130.052 61.6826 129.891 61.9082 129.891 62.4045C129.891 63.0662 130.345 63.5625 130.96 63.5625C131.312 63.5625 131.737 63.2166 133.333 61.5924L135.296 59.6223L135.78 59.9832C136.512 60.5396 137.157 60.7502 138.094 60.7502C139.149 60.7502 140.379 60.1787 141.024 59.3816C141.478 58.8252 141.903 57.7424 141.903 57.1559C141.903 56.8851 142.005 56.81 142.518 56.7348C143.353 56.5994 144.349 56.073 144.788 55.5316C145.521 54.6293 145.77 53.9375 145.77 52.6592L145.785 51.456L147.176 50.7492C148.875 49.907 151.717 48.9295 153.709 48.5234C154.53 48.358 156.331 48.1174 157.708 47.9971C159.1 47.8768 160.741 47.6662 161.356 47.5309C170.409 45.6209 177.469 38.3119 179.271 29.0027C179.681 26.8371 179.784 23.724 179.491 21.5283C178.187 11.377 170.951 3.45137 161.165 1.45117L154.207 1.15039V1.15039ZM145.081 29.108C145.389 29.1982 145.975 29.2734 146.385 29.2734C147.352 29.2734 147.484 29.4389 147.616 30.8225C147.674 31.409 147.821 32.1008 147.938 32.3564C148.465 33.3791 149.461 33.9355 150.765 33.9355C151.82 33.9355 152.157 34.2514 152.157 35.2439C152.157 36.3117 152.406 37.0486 152.977 37.6953L153.49 38.2818L151.615 38.8834C150.589 39.2143 148.919 39.7557 147.909 40.0715C145.14 40.9588 144.744 41.2144 142.445 43.5305L140.438 45.5758L138.343 43.4402L136.263 41.3047L138.123 39.3947C140.76 36.6576 140.584 36.9885 142.562 30.5818L143.382 27.9049L143.953 28.4312C144.261 28.717 144.774 29.0178 145.081 29.108V29.108ZM136.732 45.0945C142.108 50.6139 143.529 52.1478 143.602 52.5238C143.778 53.5164 142.899 54.5391 141.859 54.5391C141.668 54.5391 141.244 54.3436 140.936 54.1029C140.262 53.5916 128.133 41.0941 127.782 40.5527C127.489 40.0865 127.474 39.4699 127.767 38.8984C128.075 38.2818 128.66 37.9811 129.364 38.0562C129.906 38.1164 130.404 38.5977 136.732 45.0945ZM132.777 49.0047C139.852 56.2686 139.896 56.3137 139.647 57.2912C139.53 57.7725 138.9 58.4041 138.431 58.4943C138.226 58.5394 137.845 58.5094 137.596 58.4342C136.966 58.2387 123.944 44.899 123.724 44.1922C123.372 43.1094 124.207 42.0566 125.423 42.0566C125.994 42.0566 126.112 42.177 132.777 49.0047V49.0047ZM126.2 50.2228L128.133 52.208L122.889 57.592L117.66 62.9609L115.697 60.9457L113.719 58.9154L118.905 53.5615C121.761 50.6289 124.119 48.2227 124.178 48.2227C124.222 48.2227 125.13 49.125 126.2 50.2228ZM120.692 70.315C120.311 70.5105 119.022 71.067 117.806 71.5633L115.609 72.4355L112.855 69.6082L110.101 66.7809L110.775 64.9912C111.141 63.9986 111.683 62.6602 111.976 62.0135L112.518 60.8404L116.956 65.3973L121.395 69.9541L120.692 70.315ZM111.287 71.3076C112.371 72.4205 113.221 73.3529 113.192 73.383C113.148 73.4131 111.771 73.9545 110.145 74.6012C108.109 75.3982 107.113 75.7291 107.01 75.6238C106.908 75.5185 107.23 74.4809 108.006 72.3754C108.651 70.676 109.193 69.2773 109.237 69.2773C109.281 69.2773 110.203 70.1947 111.287 71.3076V71.3076Z" fill="#EC9A01"/>
</g>
</g>
</g>
<defs>
<filter id="filter0_d" x="7.04001" y="71.72" width="96.551" height="79.04" filterUnits="userSpaceOnUse" color-interpolation-filters="sRGB">
<feFlood flood-opacity="0" result="BackgroundImageFix"/>
<feColorMatrix in="SourceAlpha" type="matrix" values="0 0 0 0 0 0 0 0 0 0 0 0 0 0 0 0 0 0 127 0" result="hardAlpha"/>
<feOffset dy="4"/>
<feGaussianBlur stdDeviation="2"/>
<feComposite in2="hardAlpha" operator="out"/>
<feColorMatrix type="matrix" values="0 0 0 0 0.92549 0 0 0 0 0.603922 0 0 0 0 0.00392157 0 0 0 0.04 0"/>
<feBlend mode="normal" in2="BackgroundImageFix" result="effect1_dropShadow"/>
<feBlend mode="normal" in="SourceGraphic" in2="effect1_dropShadow" result="shape"/>
</filter>
<filter id="filter1_d" x="101" y="0" width="83" height="85" filterUnits="userSpaceOnUse" color-interpolation-filters="sRGB">
<feFlood flood-opacity="0" result="BackgroundImageFix"/>
<feColorMatrix in="SourceAlpha" type="matrix" values="0 0 0 0 0 0 0 0 0 0 0 0 0 0 0 0 0 0 127 0" result="hardAlpha"/>
<feOffset dy="4"/>
<feGaussianBlur stdDeviation="2"/>
<feComposite in2="hardAlpha" operator="out"/>
<feColorMatrix type="matrix" values="0 0 0 0 0.92549 0 0 0 0 0.603922 0 0 0 0 0.00392157 0 0 0 0.04 0"/>
<feBlend mode="normal" in2="BackgroundImageFix" result="effect1_dropShadow"/>
<feBlend mode="normal" in="SourceGraphic" in2="effect1_dropShadow" result="shape"/>
</filter>
<filter id="filter2_d" x="100.696" y="1.15039" width="82.9625" height="84.8496" filterUnits="userSpaceOnUse" color-interpolation-filters="sRGB">
<feFlood flood-opacity="0" result="BackgroundImageFix"/>
<feColorMatrix in="SourceAlpha" type="matrix" values="0 0 0 0 0 0 0 0 0 0 0 0 0 0 0 0 0 0 127 0" result="hardAlpha"/>
<feOffset dy="4"/>
<feGaussianBlur stdDeviation="2"/>
<feComposite in2="hardAlpha" operator="out"/>
<feColorMatrix type="matrix" values="0 0 0 0 0.92549 0 0 0 0 0.603922 0 0 0 0 0.00392157 0 0 0 0.1 0"/>
<feBlend mode="normal" in2="BackgroundImageFix" result="effect1_dropShadow"/>
<feBlend mode="normal" in="SourceGraphic" in2="effect1_dropShadow" result="shape"/>
</filter>
<filter id="filter3_d" x="100.696" y="1.15039" width="82.9625" height="84.8496" filterUnits="userSpaceOnUse" color-interpolation-filters="sRGB">
<feFlood flood-opacity="0" result="BackgroundImageFix"/>
<feColorMatrix in="SourceAlpha" type="matrix" values="0 0 0 0 0 0 0 0 0 0 0 0 0 0 0 0 0 0 127 0" result="hardAlpha"/>
<feOffset dy="4"/>
<feGaussianBlur stdDeviation="2"/>
<feComposite in2="hardAlpha" operator="out"/>
<feColorMatrix type="matrix" values="0 0 0 0 0.92549 0 0 0 0 0.603922 0 0 0 0 0.00392157 0 0 0 0.01 0"/>
<feBlend mode="normal" in2="BackgroundImageFix" result="effect1_dropShadow"/>
<feBlend mode="normal" in="SourceGraphic" in2="effect1_dropShadow" result="shape"/>
</filter>
<clipPath id="clip0">
<rect width="75" height="77" fill="white" transform="translate(105)"/>
</clipPath>
</defs>
</svg>
