<svg width="145" height="162" viewBox="0 0 145 162" fill="none" xmlns="http://www.w3.org/2000/svg">
<path id="logo" fill-rule="evenodd" clip-rule="evenodd" d="M112.101 4.32862C120.863 5.94045 129.052 11.0104 134.552 19.1441C140.051 27.2779 141.799 36.9036 140.181 45.8577C139.982 46.956 140.693 48.0039 141.769 48.1982C142.844 48.3925 143.877 47.6596 144.076 46.5613C145.878 36.5866 143.928 25.8716 137.818 16.8343C131.707 7.79708 122.593 2.14889 112.832 0.353358C111.757 0.155645 110.722 0.88526 110.52 1.983C110.318 3.08074 111.026 4.13091 112.101 4.32862ZM110.291 15.6713C115.944 16.7271 121.224 20.0061 124.777 25.2598C128.329 30.5134 129.465 36.7239 128.435 42.5061C128.24 43.605 128.953 44.6509 130.029 44.8423C131.105 45.0336 132.136 44.2979 132.332 43.1991C133.542 36.3994 132.203 29.1039 128.042 22.9499C123.881 16.796 117.68 12.9396 111.032 11.698C109.958 11.4973 108.921 12.2241 108.716 13.3213C108.512 14.4185 109.217 15.4706 110.291 15.6713ZM116.412 31.176C114.424 28.2352 111.441 26.4373 108.27 25.925C107.191 25.7507 106.461 24.7163 106.64 23.6146C106.819 22.5129 107.839 21.7611 108.918 21.9354C113.119 22.6142 117.061 24.9967 119.678 28.8662C122.294 32.7357 123.082 37.349 122.22 41.609C121.999 42.7029 120.951 43.4134 119.88 43.1957C118.809 42.9781 118.12 41.9149 118.342 40.8209C118.992 37.6057 118.4 34.1168 116.412 31.176ZM15.4818 15.9412C8.42666 22.7697 4.8557 31.7145 4.78995 40.6237C4.78188 41.7165 3.87056 42.5958 2.75444 42.5877C1.63833 42.5795 0.740078 41.687 0.748144 40.5941C0.82139 30.6695 4.80116 20.7133 12.64 13.1262C20.4789 5.53921 30.6925 1.758 40.8287 1.80124C41.9448 1.80601 42.8459 2.69581 42.8413 3.78867C42.8367 4.88153 41.9282 5.76362 40.8121 5.75885C31.713 5.72004 22.537 9.1127 15.4818 15.9412ZM23.202 24.5061C18.6451 28.9166 16.3328 34.6863 16.2746 40.4367C16.2636 41.5295 15.3498 42.4064 14.2337 42.3953C13.1177 42.3842 12.2219 41.4893 12.2329 40.3965C12.3013 33.6343 15.0223 26.8575 20.3602 21.6911C25.6981 16.5247 32.6503 13.9391 39.5568 13.9504C40.6729 13.9523 41.5765 14.8397 41.5749 15.9326C41.5732 17.0255 40.6671 17.9099 39.551 17.9081C33.6779 17.8984 27.759 20.0955 23.202 24.5061ZM26.7235 40.6464C26.6774 37.4347 27.9301 34.185 30.4809 31.7162C33.0317 29.2473 36.3648 28.0585 39.6441 28.1408C40.7599 28.1688 41.6874 27.3059 41.7157 26.2134C41.7441 25.1209 40.8625 24.2125 39.7467 24.1845C35.4018 24.0754 30.9955 25.6526 27.6391 28.9012C24.2826 32.1498 22.6209 36.4457 22.682 40.701C22.6977 41.7938 23.6151 42.6674 24.7311 42.6523C25.8472 42.6372 26.7392 41.7391 26.7235 40.6464ZM74 30C49.2012 30 29 49.5542 29 73.7944C29 83.6877 30.4789 90.3286 32.9016 95.3956C35.302 100.416 38.5638 103.733 41.7537 106.977L41.8229 107.047C45.8842 111.178 49.9963 115.369 53.141 123.295C53.1694 123.366 53.2019 123.436 53.2383 123.504L55.6547 128H53.0429C51.9978 128 51.129 128.805 51.0488 129.846C50.9396 131.265 50.9846 132.565 51.4776 133.759C51.8653 134.697 52.4652 135.417 53.1667 136.038L55.4349 155.235L55.4375 155.256C55.6055 156.559 55.9293 157.574 56.4688 158.433C56.9698 159.23 57.5923 159.773 58.0514 160.174L58.1079 160.223C58.5084 160.573 58.8538 160.878 59.2203 161.304C59.6003 161.746 60.1541 162 60.7368 162H74H87.2632C87.8459 162 88.3997 161.746 88.7797 161.304C89.1462 160.878 89.4916 160.573 89.8922 160.223L89.9486 160.174C90.4077 159.773 91.0302 159.23 91.5312 158.433C92.0707 157.574 92.3945 156.559 92.5625 155.256L92.5651 155.235L94.8333 136.038C95.5348 135.417 96.1348 134.697 96.5224 133.759C97.0154 132.565 97.0604 131.265 96.9512 129.846C96.871 128.805 96.0022 128 94.9571 128H92.3453L94.7617 123.504C94.7981 123.436 94.8306 123.366 94.859 123.295C98.0037 115.369 102.116 111.178 106.177 107.047L106.246 106.977L106.246 106.977C109.436 103.733 112.698 100.416 115.098 95.3956C117.521 90.3286 119 83.6877 119 73.7944C119 49.5542 98.7988 30 74 30ZM87.8043 128L91.1842 121.711C94.6291 113.086 99.1972 108.441 103.301 104.267L103.325 104.243C106.563 100.95 109.395 98.0505 111.49 93.6702C113.579 89.3001 115 83.295 115 73.7944C115 51.8698 96.6977 34 74 34C51.3023 34 33 51.8698 33 73.7944C33 83.295 34.4209 89.3001 36.5103 93.6702C38.6047 98.0505 41.4375 100.95 44.675 104.243L44.6991 104.267L44.6991 104.267C48.8029 108.441 53.3709 113.086 56.8158 121.711L60.1957 128L74 128L87.8043 128ZM59 132L55.0983 132C55.1214 132.089 55.1473 132.165 55.1748 132.232C55.2919 132.515 55.5259 132.846 56.2649 133.405C56.6989 133.734 56.9803 134.225 57.0442 134.765L59.4059 154.754C59.5238 155.661 59.7108 156.074 59.8558 156.305C60.0191 156.564 60.2239 156.76 60.7401 157.211L60.7591 157.228C61.0001 157.438 61.2885 157.69 61.6023 158H74H86.3977C86.7115 157.69 86.9999 157.438 87.2409 157.228L87.2599 157.211C87.7761 156.76 87.9809 156.564 88.1442 156.305C88.2892 156.074 88.4762 155.661 88.5941 154.754L90.9558 134.765C91.0197 134.225 91.3011 133.734 91.7351 133.405C92.4741 132.846 92.7082 132.515 92.8252 132.232C92.8527 132.165 92.8786 132.089 92.9017 132L89 132L74 132L59 132ZM73.7291 103.076C83.5474 103.004 92.3051 98.996 98.5018 92.5945C99.2619 91.8092 100.528 91.8019 101.33 92.5782C102.132 93.3544 102.166 94.6203 101.406 95.4055C94.5031 102.537 84.7515 106.994 73.8426 107.074C62.9337 107.154 52.9331 102.841 45.6282 95.8135C44.8239 95.0397 44.7859 93.7739 45.5436 92.9863C46.3012 92.1986 47.5674 92.1874 48.3718 92.9612C54.9293 99.2694 63.9108 103.148 73.7291 103.076ZM64.054 78.7196C66.0399 77.3447 67 75.6435 67 74C67 72.3565 66.0399 70.6553 64.054 69.2804C62.0759 67.911 59.2345 67 56 67C52.7655 67 49.9241 67.911 47.946 69.2804C45.9601 70.6553 45 72.3565 45 74C45 75.6435 45.9601 77.3447 47.946 78.7196C49.9241 80.089 52.7655 81 56 81C59.2345 81 62.0759 80.089 64.054 78.7196ZM56 83C63.1797 83 69 78.9706 69 74C69 69.0294 63.1797 65 56 65C48.8203 65 43 69.0294 43 74C43 78.9706 48.8203 83 56 83ZM101 74C101 75.6435 100.04 77.3447 98.054 78.7196C96.0759 80.089 93.2345 81 90 81C86.7655 81 83.9241 80.089 81.946 78.7196C79.9601 77.3447 79 75.6435 79 74C79 72.3565 79.9601 70.6553 81.946 69.2804C83.9241 67.911 86.7655 67 90 67C93.2345 67 96.0759 67.911 98.054 69.2804C100.04 70.6553 101 72.3565 101 74ZM103 74C103 78.9706 97.1797 83 90 83C82.8203 83 77 78.9706 77 74C77 69.0294 82.8203 65 90 65C97.1797 65 103 69.0294 103 74ZM56.5 76.5C57.6046 76.5 58.5 75.6046 58.5 74.5C58.5 73.3954 57.6046 72.5 56.5 72.5C55.3954 72.5 54.5 73.3954 54.5 74.5C54.5 75.6046 55.3954 76.5 56.5 76.5ZM56.5 77C57.8807 77 59 75.8807 59 74.5C59 73.1193 57.8807 72 56.5 72C55.1193 72 54 73.1193 54 74.5C54 75.8807 55.1193 77 56.5 77ZM92.5 74.5C92.5 75.6046 91.6046 76.5 90.5 76.5C89.3954 76.5 88.5 75.6046 88.5 74.5C88.5 73.3954 89.3954 72.5 90.5 72.5C91.6046 72.5 92.5 73.3954 92.5 74.5ZM93 74.5C93 75.8807 91.8807 77 90.5 77C89.1193 77 88 75.8807 88 74.5C88 73.1193 89.1193 72 90.5 72C91.8807 72 93 73.1193 93 74.5Z" fill="black"/>
</svg>
