<svg width="207" height="224" viewBox="0 0 207 224" fill="none" xmlns="http://www.w3.org/2000/svg">
<g filter="url(#filter0_d)">
<mask id="path-1-outside-1" maskUnits="userSpaceOnUse" x="78.4553" y="174.112" width="59" height="42" fill="black">
<rect fill="white" x="78.4553" y="174.112" width="59" height="42"/>
<path fill-rule="evenodd" clip-rule="evenodd" d="M108.442 214.438H90.7661C90.1414 213.723 89.5518 213.216 89.0165 212.756C87.7108 211.633 86.7281 210.789 86.3472 207.883L83.1979 181.666C80.8939 179.951 80.2428 178.558 80.5124 175.112H108.442H136.371C136.641 178.558 135.989 179.951 133.685 181.666L130.536 207.883C130.155 210.789 129.173 211.633 127.867 212.756C127.332 213.216 126.742 213.723 126.117 214.438H108.442Z"/>
</mask>
<path fill-rule="evenodd" clip-rule="evenodd" d="M108.442 214.438H90.7661C90.1414 213.723 89.5518 213.216 89.0165 212.756C87.7108 211.633 86.7281 210.789 86.3472 207.883L83.1979 181.666C80.8939 179.951 80.2428 178.558 80.5124 175.112H108.442H136.371C136.641 178.558 135.989 179.951 133.685 181.666L130.536 207.883C130.155 210.789 129.173 211.633 127.867 212.756C127.332 213.216 126.742 213.723 126.117 214.438H108.442Z" fill="#467B3D" fill-opacity="0.51"/>
<path d="M90.7661 214.438L90.0132 215.096L90.312 215.438H90.7661V214.438ZM89.0165 212.756L89.6684 211.998L89.6684 211.998L89.0165 212.756ZM86.3472 207.883L85.3543 208.003L85.3557 208.013L86.3472 207.883ZM83.1979 181.666L84.1908 181.547L84.1396 181.121L83.7951 180.864L83.1979 181.666ZM80.5124 175.112V174.112H79.5876L79.5155 175.034L80.5124 175.112ZM136.371 175.112L137.368 175.034L137.296 174.112H136.371V175.112ZM133.685 181.666L133.088 180.864L132.744 181.121L132.693 181.547L133.685 181.666ZM130.536 207.883L131.528 208.013L131.529 208.003L130.536 207.883ZM127.867 212.756L128.519 213.514L128.519 213.514L127.867 212.756ZM126.117 214.438V215.438H126.571L126.87 215.096L126.117 214.438ZM90.7661 215.438H108.442V213.438H90.7661V215.438ZM88.3646 213.514C88.8994 213.974 89.4401 214.44 90.0132 215.096L91.519 213.779C90.8427 213.006 90.2041 212.458 89.6684 211.998L88.3646 213.514ZM85.3557 208.013C85.5591 209.565 85.9352 210.654 86.4923 211.526C87.0398 212.384 87.7255 212.965 88.3646 213.514L89.6684 211.998C89.0018 211.425 88.5433 211.022 88.1778 210.45C87.8219 209.893 87.5162 209.107 87.3387 207.753L85.3557 208.013ZM82.2051 181.786L85.3543 208.003L87.34 207.764L84.1908 181.547L82.2051 181.786ZM79.5155 175.034C79.3765 176.81 79.4583 178.212 79.968 179.426C80.4852 180.657 81.3869 181.565 82.6008 182.469L83.7951 180.864C82.7049 180.053 82.129 179.406 81.8121 178.651C81.4876 177.879 81.3787 176.86 81.5094 175.19L79.5155 175.034ZM108.442 174.112H80.5124V176.112H108.442V174.112ZM108.442 176.112H136.371V174.112H108.442V176.112ZM135.374 175.19C135.505 176.86 135.396 177.879 135.071 178.651C134.754 179.406 134.178 180.053 133.088 180.864L134.283 182.469C135.496 181.565 136.398 180.657 136.915 179.426C137.425 178.212 137.507 176.81 137.368 175.034L135.374 175.19ZM132.693 181.547L129.543 207.764L131.529 208.003L134.678 181.786L132.693 181.547ZM129.545 207.753C129.367 209.107 129.061 209.893 128.706 210.45C128.34 211.022 127.882 211.425 127.215 211.998L128.519 213.514C129.158 212.965 129.844 212.384 130.391 211.526C130.948 210.654 131.324 209.565 131.528 208.013L129.545 207.753ZM127.215 211.998C126.679 212.458 126.041 213.006 125.364 213.779L126.87 215.096C127.443 214.44 127.984 213.974 128.519 213.514L127.215 211.998ZM126.117 213.438H108.442V215.438H126.117V213.438Z" fill="black" mask="url(#path-1-outside-1)"/>
<g filter="url(#filter1_d)">
<path d="M51.1363 101.435C51.1363 71.178 76.7928 46.6495 108.442 46.6495C140.091 46.6495 165.747 71.178 165.747 101.435C165.747 126.858 158.018 134.589 149.423 143.187C143.967 148.645 138.161 154.452 133.763 165.356L128.432 175.112H88.4514L83.1207 165.356C78.722 154.452 72.9166 148.645 67.4603 143.187C58.8652 134.589 51.1363 126.858 51.1363 101.435Z" fill="#FFED48"/>
<path d="M51.1363 101.435C51.1363 71.178 76.7928 46.6495 108.442 46.6495C140.091 46.6495 165.747 71.178 165.747 101.435C165.747 126.858 158.018 134.589 149.423 143.187C143.967 148.645 138.161 154.452 133.763 165.356L128.432 175.112H88.4514L83.1207 165.356C78.722 154.452 72.9166 148.645 67.4603 143.187C58.8652 134.589 51.1363 126.858 51.1363 101.435Z" stroke="black" stroke-linecap="round" stroke-linejoin="round"/>
</g>
<path fill-rule="evenodd" clip-rule="evenodd" d="M30.0003 25.1554C20.4653 34.2328 15.6395 46.1243 15.5507 57.9653C15.5426 59.0489 14.6238 59.9136 13.4987 59.8966C12.3735 59.8795 11.468 58.9873 11.4761 57.9036C11.5725 45.0563 16.8094 32.1716 27.1235 22.3524C37.4375 12.5333 50.8756 7.63918 64.2153 7.69516C65.3405 7.69987 66.2564 8.58228 66.2611 9.66606C66.2657 10.7498 65.3573 11.6246 64.2321 11.6199C51.9373 11.5683 39.5352 16.078 30.0003 25.1554ZM40.2888 36.3825C34.0837 42.29 30.9353 50.0187 30.8561 57.7184C30.845 58.802 29.9238 59.6643 28.7987 59.6444C27.6736 59.6244 26.7705 58.7299 26.7816 57.6462C26.8711 48.9439 30.4305 40.2261 37.412 33.5796C44.3936 26.9331 53.4859 23.6062 62.5221 23.6209C63.6472 23.6227 64.5656 24.5027 64.5732 25.5865C64.5809 26.6703 63.675 27.5474 62.5498 27.5456C54.5548 27.5327 46.494 30.4751 40.2888 36.3825ZM44.7812 58.0084C44.7173 53.6317 46.4534 49.2 49.9892 45.8339C53.525 42.4677 58.1463 40.8472 62.6896 40.9593C63.8146 40.9871 64.7423 40.1313 64.7616 39.0479C64.7809 37.9645 63.8845 37.0637 62.7595 37.0359C57.142 36.8972 51.4491 38.9024 47.1124 43.0309C42.7758 47.1595 40.628 52.6188 40.7069 58.0302C40.7227 59.114 41.6476 59.9877 42.7727 59.9816C43.8978 59.9756 44.797 59.0922 44.7812 58.0084Z" fill="#65AF07"/>
<path fill-rule="evenodd" clip-rule="evenodd" d="M189.676 29.4233C182.253 18.6248 171.196 11.8883 159.357 9.74617C158.273 9.55007 157.55 8.50684 157.743 7.41605C157.935 6.32525 158.97 5.59996 160.054 5.79606C172.901 8.12048 184.903 15.4337 192.952 27.1438C201.002 38.8539 203.568 52.7321 201.195 65.6448C200.995 66.7342 199.955 67.4522 198.873 67.2484C197.79 67.0447 197.075 65.9964 197.275 64.907C199.462 53.0071 197.099 40.2217 189.676 29.4233ZM176.648 37.4399C171.821 30.4173 164.64 26.0285 156.946 24.6149C155.863 24.4159 155.143 23.3707 155.338 22.2805C155.534 21.1902 156.57 20.4677 157.654 20.6667C166.352 22.2647 174.473 27.2294 179.925 35.1604C185.377 43.0914 187.128 52.4878 185.544 61.2391C185.347 62.329 184.309 63.0498 183.226 62.849C182.143 62.6482 181.425 61.6018 181.622 60.5119C183.023 52.7704 181.476 44.4624 176.648 37.4399ZM154.238 38.0534C158.63 38.7515 162.755 41.2002 165.501 45.1952C168.247 49.1902 169.069 53.9367 168.168 58.3181C167.945 59.4029 168.638 60.4662 169.716 60.693C170.794 60.9199 171.848 60.2244 172.071 59.1396C173.186 53.7221 172.168 47.848 168.778 42.9157C165.387 37.9835 160.283 34.9523 154.851 34.0891C153.764 33.9162 152.744 34.6635 152.575 35.7583C152.405 36.853 153.15 37.8805 154.238 38.0534Z" fill="#65AF07"/>
<path d="M136.916 130.337C130.191 138.127 120.667 142.995 109.983 143.071C99.2988 143.148 89.4978 138.42 82.3255 130.73" stroke="black" stroke-width="4" stroke-linecap="round" stroke-linejoin="round"/>
<path d="M101.96 105.093C101.96 112.489 95.8603 118.512 88.3007 118.512C80.7411 118.512 74.6412 112.489 74.6412 105.093C74.6412 97.6971 80.7411 91.6736 88.3007 91.6736C95.8603 91.6736 101.96 97.6971 101.96 105.093Z" fill="#FDF3F3" stroke="black" stroke-width="2"/>
<path d="M94.7141 104.437C94.7141 108.277 91.5483 111.397 87.6343 111.397C83.7204 111.397 80.5546 108.277 80.5546 104.437C80.5546 100.598 83.7204 97.4778 87.6343 97.4778C91.5483 97.4778 94.7141 100.598 94.7141 104.437Z" fill="#0D0101" stroke="black" stroke-width="0.5"/>
<ellipse cx="83.6363" cy="99.1941" rx="0.666341" ry="0.655422" fill="#FBF8F8"/>
<ellipse cx="81.6373" cy="101.16" rx="1.33268" ry="1.31084" fill="#FBF8F8"/>
<path d="M146.467 105.093C146.467 112.489 140.367 118.512 132.808 118.512C125.248 118.512 119.148 112.489 119.148 105.093C119.148 97.6971 125.248 91.6736 132.808 91.6736C140.367 91.6736 146.467 97.6971 146.467 105.093Z" fill="#FFF8F8" stroke="black" stroke-width="2"/>
<path d="M140.554 104.437C140.554 108.277 137.388 111.397 133.474 111.397C129.56 111.397 126.394 108.277 126.394 104.437C126.394 100.598 129.56 97.4778 133.474 97.4778C137.388 97.4778 140.554 100.598 140.554 104.437Z" fill="#0D0000" stroke="black" stroke-width="0.5"/>
<ellipse cx="137.472" cy="99.1941" rx="0.666341" ry="0.655422" fill="#FBF8F8"/>
<ellipse cx="139.471" cy="101.16" rx="1.33268" ry="1.31084" fill="#FBF8F8"/>
</g>
<defs>
<filter id="filter0_d" x="7.47604" y="5.76405" width="198.566" height="217.674" filterUnits="userSpaceOnUse" color-interpolation-filters="sRGB">
<feFlood flood-opacity="0" result="BackgroundImageFix"/>
<feColorMatrix in="SourceAlpha" type="matrix" values="0 0 0 0 0 0 0 0 0 0 0 0 0 0 0 0 0 0 127 0"/>
<feOffset dy="4"/>
<feGaussianBlur stdDeviation="2"/>
<feColorMatrix type="matrix" values="0 0 0 0 0 0 0 0 0 0 0 0 0 0 0 0 0 0 0.25 0"/>
<feBlend mode="normal" in2="BackgroundImageFix" result="effect1_dropShadow"/>
<feBlend mode="normal" in="SourceGraphic" in2="effect1_dropShadow" result="shape"/>
</filter>
<filter id="filter1_d" x="46.6363" y="46.1495" width="123.611" height="137.463" filterUnits="userSpaceOnUse" color-interpolation-filters="sRGB">
<feFlood flood-opacity="0" result="BackgroundImageFix"/>
<feColorMatrix in="SourceAlpha" type="matrix" values="0 0 0 0 0 0 0 0 0 0 0 0 0 0 0 0 0 0 127 0"/>
<feOffset dy="4"/>
<feGaussianBlur stdDeviation="2"/>
<feColorMatrix type="matrix" values="0 0 0 0 0 0 0 0 0 0 0 0 0 0 0 0 0 0 0.25 0"/>
<feBlend mode="normal" in2="BackgroundImageFix" result="effect1_dropShadow"/>
<feBlend mode="normal" in="SourceGraphic" in2="effect1_dropShadow" result="shape"/>
</filter>
</defs>
</svg>
